<svg xmlns="http://www.w3.org/2000/svg" x="0" y="0" viewBox="0 0 24 24" xml:space="preserve" class="execution"><path fill="none" d="M2 2h20v20H2V2z"></path><path fill="none" d="M1.7 2.1h20v20h-20v-20z"></path><path d="M21.4 21.6H2.2l3.1-5.7c1.5 0 3-.1 4.4-.4 2.5-.3 4.8-1.1 6.9-2.5.1.1 4.6 8.2 4.8 8.6zm-9.8-3.9c-.5 0-.9.4-.9.9s.4.9.9.9.9-.4.9-.9c.1-.4-.4-.9-.9-.9zm3.3-1.8c-.8 0-1.4.6-1.4 1.4s.6 1.4 1.4 1.4 1.4-.6 1.4-1.4c0-.8-.6-1.4-1.4-1.4z" fill="#aecfd9"></path><circle cx="12.6" cy="13.1" r=".9" fill="#aecfd9"></circle><path d="M21.5 21.3L14.9 9.2V2.7c0-.3-.2-.5-.5-.5H8.8c-.3 0-.5.2-.5.5v6.5L1.7 21.3c-.1.2-.1.3 0 .5s.3.3.5.3h18.9c.2 0 .3-.1.4-.2.1-.2.1-.4 0-.6zM4.7 20.1L10.1 10v-.1l.1-.5V4.2h2.7V9.4l.1.5v.1l5.4 10.1H4.7z" fill="#056c89"></path></svg>